<svg xmlns="http://www.w3.org/2000/svg" viewBox="0 0 256 256">
  <rect width="256" height="256" rx="52" fill="#fff8fa"/>
  <circle cx="128" cy="118" r="58" fill="#ffe3ec"/>
  <path d="M87 92 73 62l37 18M169 92l14-30-37 18" fill="#ffd1df" stroke="#c97894" stroke-width="8" stroke-linejoin="round"/>
  <path d="M80 119c0-30 22-52 48-52s48 22 48 52-20 50-48 50-48-20-48-50Z" fill="#fffdfd" stroke="#c97894" stroke-width="8"/>
  <path d="M105 120h.5M151 120h.5" stroke="#6f5962" stroke-width="10" stroke-linecap="round"/>
  <path d="M121 137c4 5 10 5 14 0" fill="none" stroke="#c97894" stroke-width="6" stroke-linecap="round"/>
  <path d="M72 197c25-20 86-20 112 0" fill="none" stroke="#e4a0b6" stroke-width="12" stroke-linecap="round"/>
</svg>
